<mxfile host="65bd71144e">
    <diagram id="KPfO5LL45yXKrHcrgosP" name="Page-1">
        <mxGraphModel dx="1100" dy="600" grid="1" gridSize="10" guides="1" tooltips="1" connect="1" arrows="0" fold="1" page="1" pageScale="1" pageWidth="850" pageHeight="1100" math="0" shadow="0">
            <root>
                <mxCell id="0"/>
                <mxCell id="1" parent="0"/>
                <mxCell id="28" value="&lt;b&gt;Full Adder (FA)&lt;/b&gt;" style="text;html=1;align=center;verticalAlign=middle;resizable=0;points=[];autosize=1;strokeColor=none;fillColor=none;" vertex="1" parent="1">
                    <mxGeometry x="145" y="265" width="110" height="30" as="geometry"/>
                </mxCell>
                <mxCell id="41" value="" style="group" vertex="1" connectable="0" parent="1">
                    <mxGeometry x="45" y="35" width="335" height="199" as="geometry"/>
                </mxCell>
                <mxCell id="8" style="edgeStyle=none;html=1;exitX=1;exitY=0.5;exitDx=0;exitDy=0;exitPerimeter=0;endArrow=none;endFill=0;" edge="1" parent="41" source="2">
                    <mxGeometry relative="1" as="geometry">
                        <mxPoint x="285" y="79" as="targetPoint"/>
                        <mxPoint x="235" y="83" as="sourcePoint"/>
                    </mxGeometry>
                </mxCell>
                <mxCell id="9" style="edgeStyle=none;html=1;exitX=0;exitY=0.25;exitDx=0;exitDy=0;exitPerimeter=0;endArrow=none;endFill=0;" edge="1" parent="41">
                    <mxGeometry relative="1" as="geometry">
                        <mxPoint x="25" y="65" as="targetPoint"/>
                        <mxPoint x="135" y="64" as="sourcePoint"/>
                        <Array as="points"/>
                    </mxGeometry>
                </mxCell>
                <mxCell id="10" style="edgeStyle=none;html=1;exitX=0;exitY=0.75;exitDx=0;exitDy=0;exitPerimeter=0;endArrow=none;endFill=0;" edge="1" parent="41" source="2">
                    <mxGeometry relative="1" as="geometry">
                        <mxPoint x="25" y="94" as="targetPoint"/>
                    </mxGeometry>
                </mxCell>
                <mxCell id="2" value="" style="verticalLabelPosition=bottom;shadow=0;dashed=0;align=center;html=1;verticalAlign=top;shape=mxgraph.electrical.logic_gates.logic_gate;operation=xor;negating=1;negSize=0.15;" vertex="1" parent="41">
                    <mxGeometry x="135" y="49" width="100" height="60" as="geometry"/>
                </mxCell>
                <mxCell id="16" style="edgeStyle=none;html=1;exitX=0;exitY=0.25;exitDx=0;exitDy=0;exitPerimeter=0;endArrow=none;endFill=0;" edge="1" parent="41" source="11">
                    <mxGeometry relative="1" as="geometry">
                        <mxPoint x="75" y="155" as="targetPoint"/>
                    </mxGeometry>
                </mxCell>
                <mxCell id="17" style="edgeStyle=none;html=1;exitX=1;exitY=0.5;exitDx=0;exitDy=0;exitPerimeter=0;endArrow=none;endFill=0;" edge="1" parent="41" source="11">
                    <mxGeometry relative="1" as="geometry">
                        <mxPoint x="285" y="169" as="targetPoint"/>
                    </mxGeometry>
                </mxCell>
                <mxCell id="18" style="edgeStyle=none;html=1;exitX=0;exitY=0.75;exitDx=0;exitDy=0;exitPerimeter=0;endArrow=none;endFill=0;" edge="1" parent="41" source="11">
                    <mxGeometry relative="1" as="geometry">
                        <mxPoint x="55" y="185" as="targetPoint"/>
                    </mxGeometry>
                </mxCell>
                <mxCell id="11" value="" style="verticalLabelPosition=bottom;shadow=0;dashed=0;align=center;html=1;verticalAlign=top;shape=mxgraph.electrical.logic_gates.logic_gate;operation=and;" vertex="1" parent="41">
                    <mxGeometry x="135" y="139" width="100" height="60" as="geometry"/>
                </mxCell>
                <mxCell id="20" value="" style="endArrow=none;html=1;" edge="1" parent="41">
                    <mxGeometry width="50" height="50" relative="1" as="geometry">
                        <mxPoint x="75" y="155" as="sourcePoint"/>
                        <mxPoint x="75" y="65" as="targetPoint"/>
                    </mxGeometry>
                </mxCell>
                <mxCell id="21" value="" style="endArrow=none;html=1;" edge="1" parent="41">
                    <mxGeometry width="50" height="50" relative="1" as="geometry">
                        <mxPoint x="75" y="155" as="sourcePoint"/>
                        <mxPoint x="74.99999999999997" y="65" as="targetPoint"/>
                    </mxGeometry>
                </mxCell>
                <mxCell id="22" value="" style="endArrow=none;html=1;" edge="1" parent="41">
                    <mxGeometry width="50" height="50" relative="1" as="geometry">
                        <mxPoint x="55" y="185" as="sourcePoint"/>
                        <mxPoint x="55" y="95" as="targetPoint"/>
                    </mxGeometry>
                </mxCell>
                <mxCell id="23" value="A" style="text;html=1;align=center;verticalAlign=middle;resizable=0;points=[];autosize=1;strokeColor=none;fillColor=none;" vertex="1" parent="41">
                    <mxGeometry y="50" width="30" height="30" as="geometry"/>
                </mxCell>
                <mxCell id="24" value="B" style="text;html=1;align=center;verticalAlign=middle;resizable=0;points=[];autosize=1;strokeColor=none;fillColor=none;" vertex="1" parent="41">
                    <mxGeometry y="80" width="30" height="30" as="geometry"/>
                </mxCell>
                <mxCell id="25" value="Sum" style="text;html=1;align=center;verticalAlign=middle;resizable=0;points=[];autosize=1;strokeColor=none;fillColor=none;" vertex="1" parent="41">
                    <mxGeometry x="285" y="64" width="50" height="30" as="geometry"/>
                </mxCell>
                <mxCell id="26" value="Carry" style="text;html=1;align=center;verticalAlign=middle;resizable=0;points=[];autosize=1;strokeColor=none;fillColor=none;" vertex="1" parent="41">
                    <mxGeometry x="285" y="154" width="50" height="30" as="geometry"/>
                </mxCell>
                <mxCell id="27" value="&lt;b&gt;Half Adder (HA)&lt;/b&gt;" style="text;html=1;align=center;verticalAlign=middle;resizable=0;points=[];autosize=1;strokeColor=none;fillColor=none;" vertex="1" parent="41">
                    <mxGeometry x="100" width="110" height="30" as="geometry"/>
                </mxCell>
                <mxCell id="58" value="" style="group" vertex="1" connectable="0" parent="1">
                    <mxGeometry x="70" y="332" width="340" height="125" as="geometry"/>
                </mxCell>
                <mxCell id="40" value="" style="group" vertex="1" connectable="0" parent="58">
                    <mxGeometry x="30.50746268656716" width="104.59701492537313" height="85" as="geometry"/>
                </mxCell>
                <mxCell id="32" style="edgeStyle=none;html=1;exitX=1;exitY=0.25;exitDx=0;exitDy=0;endArrow=none;endFill=0;" edge="1" parent="40" source="30">
                    <mxGeometry relative="1" as="geometry">
                        <mxPoint x="100.23880597014924" y="25" as="targetPoint"/>
                    </mxGeometry>
                </mxCell>
                <mxCell id="33" style="edgeStyle=none;html=1;exitX=1;exitY=0.75;exitDx=0;exitDy=0;endArrow=none;endFill=0;" edge="1" parent="40" source="30">
                    <mxGeometry relative="1" as="geometry">
                        <mxPoint x="100.23880597014924" y="65" as="targetPoint"/>
                    </mxGeometry>
                </mxCell>
                <mxCell id="34" style="edgeStyle=none;html=1;exitX=0;exitY=0.25;exitDx=0;exitDy=0;endArrow=none;endFill=0;" edge="1" parent="40" source="30">
                    <mxGeometry relative="1" as="geometry">
                        <mxPoint x="4.35820895522388" y="25" as="targetPoint"/>
                    </mxGeometry>
                </mxCell>
                <mxCell id="35" style="edgeStyle=none;html=1;exitX=0;exitY=0.75;exitDx=0;exitDy=0;endArrow=none;endFill=0;" edge="1" parent="40" source="30">
                    <mxGeometry relative="1" as="geometry">
                        <mxPoint x="4.35820895522388" y="65" as="targetPoint"/>
                    </mxGeometry>
                </mxCell>
                <mxCell id="30" value="HA" style="rounded=0;whiteSpace=wrap;html=1;" vertex="1" parent="40">
                    <mxGeometry x="21.7910447761194" y="5" width="61.01492537313432" height="80" as="geometry"/>
                </mxCell>
                <mxCell id="36" value="A" style="text;html=1;align=center;verticalAlign=middle;resizable=0;points=[];autosize=1;strokeColor=none;fillColor=none;" vertex="1" parent="40">
                    <mxGeometry width="30" height="30" as="geometry"/>
                </mxCell>
                <mxCell id="37" value="B" style="text;html=1;align=center;verticalAlign=middle;resizable=0;points=[];autosize=1;strokeColor=none;fillColor=none;" vertex="1" parent="40">
                    <mxGeometry y="40" width="30" height="30" as="geometry"/>
                </mxCell>
                <mxCell id="38" value="C" style="text;html=1;align=center;verticalAlign=middle;resizable=0;points=[];autosize=1;strokeColor=none;fillColor=none;" vertex="1" parent="40">
                    <mxGeometry x="78.44776119402984" y="-1" width="30" height="30" as="geometry"/>
                </mxCell>
                <mxCell id="39" value="S" style="text;html=1;align=center;verticalAlign=middle;resizable=0;points=[];autosize=1;strokeColor=none;fillColor=none;" vertex="1" parent="40">
                    <mxGeometry x="78.44776119402984" y="40" width="30" height="30" as="geometry"/>
                </mxCell>
                <mxCell id="42" value="" style="group" vertex="1" connectable="0" parent="58">
                    <mxGeometry x="187.40298507462683" y="40" width="152.59701492537317" height="85" as="geometry"/>
                </mxCell>
                <mxCell id="43" style="edgeStyle=none;html=1;exitX=1;exitY=0.25;exitDx=0;exitDy=0;endArrow=none;endFill=0;" edge="1" parent="42" source="47">
                    <mxGeometry relative="1" as="geometry">
                        <mxPoint x="82.59701492537317" y="25" as="targetPoint"/>
                    </mxGeometry>
                </mxCell>
                <mxCell id="44" style="edgeStyle=none;html=1;exitX=1;exitY=0.75;exitDx=0;exitDy=0;endArrow=none;endFill=0;" edge="1" parent="42" source="47">
                    <mxGeometry relative="1" as="geometry">
                        <mxPoint x="100.23880597014924" y="65" as="targetPoint"/>
                    </mxGeometry>
                </mxCell>
                <mxCell id="45" style="edgeStyle=none;html=1;exitX=0;exitY=0.25;exitDx=0;exitDy=0;endArrow=none;endFill=0;" edge="1" parent="42" source="47">
                    <mxGeometry relative="1" as="geometry">
                        <mxPoint x="4.35820895522388" y="25" as="targetPoint"/>
                    </mxGeometry>
                </mxCell>
                <mxCell id="46" style="edgeStyle=none;html=1;exitX=0;exitY=0.75;exitDx=0;exitDy=0;endArrow=none;endFill=0;" edge="1" parent="42" source="47">
                    <mxGeometry relative="1" as="geometry">
                        <mxPoint x="4.35820895522388" y="65" as="targetPoint"/>
                    </mxGeometry>
                </mxCell>
                <mxCell id="65" value="" style="group" vertex="1" connectable="0" parent="42">
                    <mxGeometry x="-37.4" width="108.44776119402984" height="85" as="geometry"/>
                </mxCell>
                <mxCell id="47" value="HA" style="rounded=0;whiteSpace=wrap;html=1;" vertex="1" parent="65">
                    <mxGeometry x="19.7910447761194" y="5" width="61.01492537313432" height="80" as="geometry"/>
                </mxCell>
                <mxCell id="48" value="A" style="text;html=1;align=center;verticalAlign=middle;resizable=0;points=[];autosize=1;strokeColor=none;fillColor=none;" vertex="1" parent="65">
                    <mxGeometry x="-3" width="30" height="30" as="geometry"/>
                </mxCell>
                <mxCell id="49" value="B" style="text;html=1;align=center;verticalAlign=middle;resizable=0;points=[];autosize=1;strokeColor=none;fillColor=none;" vertex="1" parent="65">
                    <mxGeometry x="-3" y="40" width="30" height="30" as="geometry"/>
                </mxCell>
                <mxCell id="50" value="C" style="text;html=1;align=center;verticalAlign=middle;resizable=0;points=[];autosize=1;strokeColor=none;fillColor=none;" vertex="1" parent="65">
                    <mxGeometry x="75.44776119402984" width="30" height="30" as="geometry"/>
                </mxCell>
                <mxCell id="51" value="S" style="text;html=1;align=center;verticalAlign=middle;resizable=0;points=[];autosize=1;strokeColor=none;fillColor=none;" vertex="1" parent="65">
                    <mxGeometry x="76.44776119402984" y="40" width="30" height="30" as="geometry"/>
                </mxCell>
                <mxCell id="57" value="" style="verticalLabelPosition=bottom;shadow=0;dashed=0;align=center;html=1;verticalAlign=top;shape=mxgraph.electrical.logic_gates.logic_gate;operation=or;" vertex="1" parent="42">
                    <mxGeometry x="82.59701492537317" y="-22.5" width="60" height="35.5" as="geometry"/>
                </mxCell>
                <mxCell id="75" value="Sum" style="text;html=1;align=center;verticalAlign=middle;resizable=0;points=[];autosize=1;strokeColor=none;fillColor=none;" vertex="1" parent="42">
                    <mxGeometry x="102.59701492537317" y="48" width="50" height="30" as="geometry"/>
                </mxCell>
                <mxCell id="52" value="" style="endArrow=none;html=1;" edge="1" parent="58">
                    <mxGeometry width="50" height="50" relative="1" as="geometry">
                        <mxPoint x="130.74626865671638" y="65" as="sourcePoint"/>
                        <mxPoint x="170" y="65" as="targetPoint"/>
                    </mxGeometry>
                </mxCell>
                <mxCell id="53" value="" style="endArrow=none;html=1;" edge="1" parent="58">
                    <mxGeometry width="50" height="50" relative="1" as="geometry">
                        <mxPoint y="105" as="sourcePoint"/>
                        <mxPoint x="170" y="105" as="targetPoint"/>
                    </mxGeometry>
                </mxCell>
                <mxCell id="54" value="" style="endArrow=none;html=1;exitX=0.5;exitY=0.833;exitDx=0;exitDy=0;exitPerimeter=0;" edge="1" parent="58" source="37">
                    <mxGeometry width="50" height="50" relative="1" as="geometry">
                        <mxPoint x="165.61194029850742" y="125" as="sourcePoint"/>
                        <mxPoint y="65" as="targetPoint"/>
                    </mxGeometry>
                </mxCell>
                <mxCell id="64" value="" style="endArrow=none;html=1;exitX=0.5;exitY=0.833;exitDx=0;exitDy=0;exitPerimeter=0;" edge="1" parent="58">
                    <mxGeometry width="50" height="50" relative="1" as="geometry">
                        <mxPoint x="45.50746268656707" y="25" as="sourcePoint"/>
                        <mxPoint y="25.00999999999999" as="targetPoint"/>
                    </mxGeometry>
                </mxCell>
                <mxCell id="60" style="edgeStyle=none;html=1;exitX=0;exitY=0.25;exitDx=0;exitDy=0;exitPerimeter=0;endArrow=none;endFill=0;entryX=0.013;entryY=0.865;entryDx=0;entryDy=0;entryPerimeter=0;" edge="1" parent="58" source="57" target="38">
                    <mxGeometry relative="1" as="geometry">
                        <mxPoint x="150" y="25.999999999999886" as="targetPoint"/>
                    </mxGeometry>
                </mxCell>
                <mxCell id="61" value="" style="endArrow=none;html=1;entryX=0;entryY=0.75;entryDx=0;entryDy=0;entryPerimeter=0;endSize=6;" edge="1" parent="1" target="57">
                    <mxGeometry width="50" height="50" relative="1" as="geometry">
                        <mxPoint x="340" y="397" as="sourcePoint"/>
                        <mxPoint x="242" y="390" as="targetPoint"/>
                    </mxGeometry>
                </mxCell>
                <mxCell id="74" value="Carry" style="text;html=1;align=center;verticalAlign=middle;resizable=0;points=[];autosize=1;strokeColor=none;fillColor=none;" vertex="1" parent="1">
                    <mxGeometry x="400" y="350" width="50" height="30" as="geometry"/>
                </mxCell>
                <mxCell id="76" value="A" style="text;html=1;align=center;verticalAlign=middle;resizable=0;points=[];autosize=1;strokeColor=none;fillColor=none;" vertex="1" parent="1">
                    <mxGeometry x="40" y="341" width="30" height="30" as="geometry"/>
                </mxCell>
                <mxCell id="77" value="B" style="text;html=1;align=center;verticalAlign=middle;resizable=0;points=[];autosize=1;strokeColor=none;fillColor=none;" vertex="1" parent="1">
                    <mxGeometry x="40" y="380" width="30" height="30" as="geometry"/>
                </mxCell>
                <mxCell id="78" value="C" style="text;html=1;align=center;verticalAlign=middle;resizable=0;points=[];autosize=1;strokeColor=none;fillColor=none;" vertex="1" parent="1">
                    <mxGeometry x="41" y="421" width="30" height="30" as="geometry"/>
                </mxCell>
            </root>
        </mxGraphModel>
    </diagram>
</mxfile>